<svg xmlns="http://www.w3.org/2000/svg" viewBox="0 0 200 200" width="200" height="200">
    <!-- Background -->
    <rect width="200" height="200" fill="#f0f4fa" rx="12" ry="12"/>
    
    <!-- Border -->
    <rect width="200" height="200" fill="none" stroke="#dce3ec" stroke-width="2" rx="12" ry="12"/>
    
    <!-- Chemical Flask Icon -->
    <g transform="translate(100, 80)">
        <path d="M-30,30 L-10,-20 L10,-20 L30,30 C30,45 -30,45 -30,30 Z" 
              fill="none" stroke="#0f4c81" stroke-width="3" stroke-linejoin="round"/>
        <line x1="-10" y1="-20" x2="-15" y2="-40" stroke="#0f4c81" stroke-width="3" stroke-linecap="round"/>
        <line x1="10" y1="-20" x2="15" y2="-40" stroke="#0f4c81" stroke-width="3" stroke-linecap="round"/>
        <path d="M-20,25 L-10,5 L10,5 L20,25 C20,35 -20,35 -20,25 Z" 
              fill="#0f4c81" opacity="0.25"/>
        <path d="M-10,5 C-3,8 3,8 10,5" fill="none" stroke="#0f4c81" stroke-width="1.5" opacity="0.4"/>
        <circle cx="-8" cy="15" r="3" fill="#0f4c81" opacity="0.3"/>
        <circle cx="6" cy="12" r="2" fill="#0f4c81" opacity="0.3"/>
        <circle cx="-2" cy="22" r="2.5" fill="#0f4c81" opacity="0.3"/>
        <circle cx="10" cy="20" r="1.5" fill="#0f4c81" opacity="0.3"/>
    </g>
    
    <!-- Decorative Molecules -->
    <circle cx="45" cy="140" r="4" fill="#0f4c81" opacity="0.15"/>
    <circle cx="155" cy="140" r="4" fill="#0f4c81" opacity="0.15"/>
    <circle cx="50" cy="155" r="3" fill="#0f4c81" opacity="0.12"/>
    <circle cx="150" cy="155" r="3" fill="#0f4c81" opacity="0.12"/>
    <circle cx="60" cy="170" r="2.5" fill="#0f4c81" opacity="0.1"/>
    <circle cx="140" cy="170" r="2.5" fill="#0f4c81" opacity="0.1"/>
    
    <!-- Text -->
    <text x="100" y="170" font-family="Inter, sans-serif, Arial" font-size="13" 
          fill="#5a6f87" text-anchor="middle" font-weight="600" letter-spacing="0.5">
        No Image
    </text>
    <text x="100" y="186" font-family="Inter, sans-serif, Arial" font-size="9" 
          fill="#8aa0b8" text-anchor="middle" letter-spacing="0.3">
        Structure Not Available
    </text>
</svg>
